<svg width="26" height="26" viewBox="0 0 26 26" fill="none" xmlns="http://www.w3.org/2000/svg">
<g clip-path="url(#clip0_19_248)">
<path d="M13 26C13.862 26 14.6886 25.6576 15.2981 25.0481C15.9076 24.4386 16.25 23.612 16.25 22.75H9.75C9.75 23.612 10.0924 24.4386 10.7019 25.0481C11.3114 25.6576 12.138 26 13 26ZM13 3.11675L11.7049 3.37838C10.2358 3.6777 8.91529 4.47542 7.96681 5.63651C7.01833 6.79761 6.50016 8.25075 6.5 9.75C6.5 10.7705 6.28225 13.3201 5.75412 15.8308C5.49412 17.0771 5.14312 18.3755 4.67675 19.5H21.3232C20.8569 18.3755 20.5075 17.0788 20.2459 15.8308C19.7177 13.3201 19.5 10.7705 19.5 9.75C19.4995 8.25103 18.9811 6.79827 18.0327 5.63751C17.0842 4.47675 15.7639 3.67927 14.2951 3.38L13 3.11675ZM23.1075 19.5C23.4699 20.2264 23.8891 20.8016 24.375 21.125H1.625C2.11087 20.8016 2.53012 20.2264 2.8925 19.5C4.355 16.575 4.875 11.18 4.875 9.75C4.875 5.8175 7.67 2.535 11.3831 1.78588C11.3604 1.55993 11.3854 1.33173 11.4563 1.11601C11.5272 0.900286 11.6426 0.701824 11.7949 0.533422C11.9473 0.365021 12.1332 0.230419 12.3408 0.138298C12.5483 0.0461763 12.7729 -0.00141907 13 -0.00141907C13.2271 -0.00141907 13.4516 0.0461763 13.6592 0.138298C13.8668 0.230419 14.0527 0.365021 14.2051 0.533422C14.3574 0.701824 14.4728 0.900286 14.5437 1.11601C14.6146 1.33173 14.6396 1.55993 14.6169 1.78588C16.4536 2.15947 18.1047 3.15634 19.2908 4.60769C20.4768 6.05905 21.1248 7.87569 21.125 9.75C21.125 11.18 21.645 16.575 23.1075 19.5Z" fill="#333333"/>
</g>
<defs>
<clipPath id="clip0_19_248">
<rect width="26" height="26" fill="white"/>
</clipPath>
</defs>
</svg>
