<svg width="38" height="38" viewBox="0 0 38 38" fill="none" xmlns="http://www.w3.org/2000/svg">
<path d="M23.75 32.0625C23.75 32.3774 23.8751 32.6795 24.0978 32.9022C24.3205 33.1249 24.6226 33.25 24.9375 33.25H27.3125C27.6274 33.25 27.9295 33.1249 28.1522 32.9022C28.3749 32.6795 28.5 32.3774 28.5 32.0625V17.8125C28.5 17.4976 28.3749 17.1955 28.1522 16.9728C27.9295 16.7501 27.6274 16.625 27.3125 16.625H24.9375C24.6226 16.625 24.3205 16.7501 24.0978 16.9728C23.8751 17.1955 23.75 17.4976 23.75 17.8125V32.0625ZM17.8125 33.25C17.4976 33.25 17.1955 33.1249 16.9728 32.9022C16.7501 32.6795 16.625 32.3774 16.625 32.0625V22.5625C16.625 22.2476 16.7501 21.9455 16.9728 21.7228C17.1955 21.5001 17.4976 21.375 17.8125 21.375H20.1875C20.5024 21.375 20.8045 21.5001 21.0272 21.7228C21.2499 21.9455 21.375 22.2476 21.375 22.5625V32.0625C21.375 32.3774 21.2499 32.6795 21.0272 32.9022C20.8045 33.1249 20.5024 33.25 20.1875 33.25H17.8125ZM10.6875 33.25C10.3726 33.25 10.0705 33.1249 9.84781 32.9022C9.62511 32.6795 9.5 32.3774 9.5 32.0625V27.3125C9.5 26.9976 9.62511 26.6955 9.84781 26.4728C10.0705 26.2501 10.3726 26.125 10.6875 26.125H13.0625C13.3774 26.125 13.6795 26.2501 13.9022 26.4728C14.1249 26.6955 14.25 26.9976 14.25 27.3125V32.0625C14.25 32.3774 14.1249 32.6795 13.9022 32.9022C13.6795 33.1249 13.3774 33.25 13.0625 33.25H10.6875Z" fill="#85909A"/>
<path d="M33.25 33.25V10.6875L22.5625 0H9.5C8.24022 0 7.03204 0.500445 6.14124 1.39124C5.25044 2.28204 4.75 3.49022 4.75 4.75V33.25C4.75 34.5098 5.25044 35.718 6.14124 36.6088C7.03204 37.4996 8.24022 38 9.5 38H28.5C29.7598 38 30.968 37.4996 31.8588 36.6088C32.7496 35.718 33.25 34.5098 33.25 33.25ZM22.5625 7.125C22.5625 8.06983 22.9378 8.97597 23.6059 9.64407C24.274 10.3122 25.1802 10.6875 26.125 10.6875H30.875V33.25C30.875 33.8799 30.6248 34.484 30.1794 34.9294C29.734 35.3748 29.1299 35.625 28.5 35.625H9.5C8.87011 35.625 8.26602 35.3748 7.82062 34.9294C7.37522 34.484 7.125 33.8799 7.125 33.25V4.75C7.125 4.12011 7.37522 3.51602 7.82062 3.07062C8.26602 2.62522 8.87011 2.375 9.5 2.375H22.5625V7.125Z" fill="#85909A"/>
</svg>
