<svg width="52" height="52" viewBox="0 0 52 52" fill="none" xmlns="http://www.w3.org/2000/svg">
<path d="M26.195 21.125C26.626 21.125 27.0393 21.2962 27.3441 21.601C27.6488 21.9057 27.82 22.319 27.82 22.75V25.272C27.8197 29.1543 27.2144 33.0128 26.026 36.7088L21.7003 50.1638C21.5606 50.5638 21.2702 50.8934 20.891 51.0824C20.5119 51.2714 20.0738 51.3048 19.6703 51.1756C19.2669 51.0463 18.9298 50.7645 18.7311 50.3904C18.5323 50.0162 18.4875 49.5792 18.6063 49.1725L22.9288 35.7143C24.0138 32.3397 24.5665 28.8167 24.5668 25.272V22.75C24.5668 22.319 24.738 21.9057 25.0427 21.601C25.3475 21.2962 25.7608 21.125 26.1918 21.125H26.195Z" fill="#075985" fill-opacity="0.5"/>
<path d="M19.695 22.75C19.695 21.8964 19.8631 21.0512 20.1898 20.2626C20.5164 19.4739 20.9952 18.7574 21.5988 18.1538C22.2024 17.5502 22.9189 17.0714 23.7075 16.7448C24.4962 16.4181 25.3414 16.25 26.195 16.25C27.0486 16.25 27.8938 16.4181 28.6824 16.7448C29.471 17.0714 30.1876 17.5502 30.7912 18.1538C31.3948 18.7574 31.8735 19.4739 32.2002 20.2626C32.5269 21.0512 32.695 21.8964 32.695 22.75C32.695 23.181 32.5238 23.5943 32.219 23.899C31.9143 24.2038 31.501 24.375 31.07 24.375C30.639 24.375 30.2257 24.2038 29.9209 23.899C29.6162 23.5943 29.445 23.181 29.445 22.75C29.445 21.888 29.1026 21.0614 28.4931 20.4519C27.8836 19.8424 27.0569 19.5 26.195 19.5C25.333 19.5 24.5064 19.8424 23.8969 20.4519C23.2874 21.0614 22.945 21.888 22.945 22.75V23.829C22.945 25.1582 22.8735 26.481 22.7305 27.7973C22.6742 28.2169 22.4565 28.598 22.1235 28.8595C21.7905 29.1209 21.3686 29.2421 20.9476 29.1972C20.5266 29.1523 20.1397 28.9449 19.8694 28.6191C19.599 28.2933 19.4665 27.8748 19.5 27.4527C19.63 26.2502 19.695 25.0412 19.695 23.829V22.75ZM31.0992 26C31.3127 26.0055 31.5229 26.053 31.718 26.1397C31.913 26.2265 32.0891 26.3508 32.2361 26.5057C32.3831 26.6605 32.4981 26.8428 32.5746 27.0421C32.6511 27.2414 32.6876 27.4538 32.682 27.6672C32.5857 31.3589 31.9428 35.0159 30.7742 38.519L26.6597 50.869C26.5231 51.278 26.2296 51.616 25.8438 51.8086C25.458 52.0012 25.0115 52.0326 24.6025 51.896C24.1935 51.7594 23.8555 51.4659 23.6629 51.0801C23.4703 50.6943 23.4389 50.2477 23.5755 49.8387L27.6932 37.4887C28.7589 34.2907 29.3448 30.9525 29.432 27.5828C29.4375 27.3693 29.4849 27.1591 29.5717 26.964C29.6585 26.769 29.7828 26.5929 29.9377 26.4459C30.0925 26.2989 30.2748 26.1839 30.4741 26.1074C30.6734 26.0309 30.8858 25.9944 31.0992 26ZM20.1922 32.8737C20.3963 32.9368 20.586 33.0394 20.7504 33.1758C20.9148 33.3122 21.0507 33.4797 21.1503 33.6686C21.2499 33.8576 21.3113 34.0643 21.3309 34.277C21.3506 34.4898 21.3281 34.7042 21.2647 34.9082L17.03 48.5517C16.97 48.7592 16.8692 48.9527 16.7335 49.1207C16.5979 49.2888 16.4301 49.4282 16.2399 49.5306C16.0498 49.6331 15.8412 49.6966 15.6262 49.7175C15.4112 49.7384 15.1942 49.7163 14.9879 49.6523C14.7816 49.5884 14.5901 49.4839 14.4246 49.3451C14.2592 49.2063 14.123 49.0359 14.0242 48.8439C13.9253 48.6518 13.8657 48.442 13.8489 48.2267C13.8321 48.0113 13.8584 47.7948 13.9262 47.5897L18.161 33.943C18.289 33.5321 18.5747 33.1888 18.9555 32.9884C19.3363 32.7879 19.7811 32.7467 20.1922 32.8737Z" fill="#075985" fill-opacity="0.5"/>
<path d="M15.4667 18.9572C16.3643 16.4307 18.1252 14.3023 20.439 12.9475C22.7527 11.5927 25.4705 11.0984 28.1131 11.5519C30.7556 12.0054 33.1532 13.3776 34.8828 15.4263C36.6124 17.475 37.5629 20.0688 37.5667 22.75C37.5667 23.181 37.3955 23.5943 37.0908 23.899C36.786 24.2038 36.3727 24.375 35.9417 24.375C35.5108 24.375 35.0974 24.2038 34.7927 23.899C34.4879 23.5943 34.3167 23.181 34.3167 22.75C34.3164 20.8335 33.6387 18.9787 32.4032 17.5136C31.1677 16.0484 29.4541 15.0671 27.5652 14.7432C25.6762 14.4192 23.7336 14.7734 22.0805 15.7432C20.4274 16.7129 19.1704 18.2358 18.5315 20.0427C18.3875 20.4491 18.088 20.7817 17.6989 20.9673C17.3097 21.1529 16.8628 21.1763 16.4564 21.0323C16.05 20.8884 15.7174 20.5889 15.5318 20.1997C15.3462 19.8106 15.3228 19.3636 15.4667 18.9572ZM16.4417 24.3847C16.8705 24.4266 17.2651 24.6371 17.5387 24.9699C17.8124 25.3026 17.9427 25.7304 17.901 26.1592C17.6816 28.3963 17.2462 30.6068 16.601 32.76L12.6295 45.994C12.5058 46.4069 12.2232 46.7537 11.8438 46.9582C11.4643 47.1627 11.0192 47.208 10.6064 47.0844C10.1935 46.9607 9.84666 46.678 9.64218 46.2986C9.43769 45.9192 9.3923 45.4741 9.51599 45.0612L13.4875 31.8272C14.073 29.8745 14.4681 27.8696 14.6672 25.8407C14.7092 25.412 14.9196 25.0174 15.2524 24.7437C15.5851 24.4701 16.0129 24.343 16.4417 24.3847ZM35.9417 26.4875C36.3727 26.4875 36.786 26.6587 37.0908 26.9634C37.3955 27.2682 37.5667 27.6815 37.5667 28.1125C37.5667 32.2725 36.8745 36.4065 35.5127 40.339L31.9702 50.5602C31.816 50.9494 31.5175 51.2639 31.137 51.4384C30.7565 51.6129 30.3233 51.6338 29.9278 51.4968C29.5322 51.3598 29.2048 51.0754 29.0138 50.7029C28.8227 50.3305 28.7828 49.8987 28.9022 49.4975L32.4415 39.2762C33.683 35.685 34.32 31.9117 34.32 28.1125C34.32 27.6815 34.4912 27.2682 34.7959 26.9634C35.1007 26.6587 35.514 26.4875 35.945 26.4875H35.9417Z" fill="#075985" fill-opacity="0.5"/>
<path d="M12.6816 13.7215C14.4871 11.0147 17.0643 8.91271 20.0788 7.68822C23.0934 6.46373 26.4064 6.17319 29.5881 6.85427C29.797 6.89866 29.9951 6.98376 30.1711 7.10472C30.3472 7.22568 30.4976 7.38012 30.614 7.55923C30.7303 7.73835 30.8102 7.93862 30.8492 8.14862C30.8881 8.35862 30.8853 8.57423 30.8409 8.78315C30.7965 8.99207 30.7114 9.19019 30.5905 9.36622C30.4695 9.54225 30.3151 9.69273 30.136 9.80907C29.9569 9.92541 29.7566 10.0053 29.5466 10.0443C29.3366 10.0832 29.121 10.0804 28.9121 10.036C26.3661 9.48968 23.7148 9.72126 21.3021 10.7007C18.8895 11.6801 16.827 13.3622 15.3823 15.5285C15.1392 15.8785 14.7685 16.119 14.3498 16.1982C13.9312 16.2774 13.4981 16.189 13.144 15.9521C12.7899 15.7152 12.543 15.3486 12.4565 14.9314C12.37 14.5142 12.4508 14.0797 12.6816 13.7215ZM34.5216 10.6178C34.8031 10.2916 35.2025 10.0906 35.6322 10.0589C36.0619 10.0272 36.4865 10.1675 36.8128 10.4488C38.5812 11.9732 39.9997 13.8614 40.9712 15.9844C41.9427 18.1075 42.4443 20.4153 42.4418 22.75V27.625C42.4418 28.056 42.2706 28.4693 41.9659 28.7741C41.6611 29.0788 41.2478 29.25 40.8168 29.25C40.3858 29.25 39.9725 29.0788 39.6678 28.7741C39.363 28.4693 39.1918 28.056 39.1918 27.625V22.75C39.1941 20.882 38.7928 19.0356 38.0153 17.3371C37.2379 15.6386 36.1026 14.1281 34.6873 12.909C34.3616 12.6271 34.1612 12.2274 34.1302 11.7977C34.0991 11.3681 34.2399 10.9437 34.5216 10.6178ZM11.9601 18.9865C12.1714 19.0175 12.3745 19.0899 12.5579 19.1995C12.7412 19.3091 12.9011 19.4537 13.0285 19.6252C13.1559 19.7966 13.2482 19.9915 13.3002 20.1987C13.3522 20.4059 13.3629 20.6212 13.3316 20.8325C13.2373 21.4565 13.1886 22.1 13.1886 22.75C13.1886 25.0575 12.8636 27.3553 12.2201 29.575L8.51506 42.3248C8.45954 42.5342 8.36271 42.7304 8.23026 42.9018C8.09782 43.0732 7.93244 43.2164 7.74384 43.323C7.55524 43.4296 7.34723 43.4974 7.13205 43.5224C6.91687 43.5474 6.69886 43.5292 6.49083 43.4687C6.28281 43.4083 6.08897 43.3068 5.92072 43.1704C5.75247 43.0339 5.61321 42.8652 5.51111 42.6741C5.40902 42.4831 5.34616 42.2735 5.32623 42.0578C5.3063 41.8421 5.3297 41.6246 5.39506 41.418L9.10006 28.6683C9.65732 26.745 9.93962 24.7525 9.93856 22.75C9.93856 21.9375 10.0003 21.138 10.1141 20.358C10.1451 20.1467 10.2174 19.9436 10.327 19.7602C10.4366 19.5769 10.5813 19.417 10.7527 19.2896C10.9242 19.1622 11.1191 19.0699 11.3262 19.0179C11.5334 18.9659 11.7488 18.9552 11.9601 18.9865ZM40.8266 30.8815C41.2557 30.9179 41.6529 31.1232 41.9308 31.4523C42.2087 31.7814 42.3446 32.2073 42.3086 32.6365C42.0356 35.8865 41.3401 39.091 40.2286 42.172L37.8106 48.893C37.6598 49.2918 37.3584 49.6154 36.9713 49.7939C36.5842 49.9725 36.1424 49.9919 35.7412 49.8477C35.34 49.7036 35.0115 49.4076 34.8265 49.0236C34.6415 48.6395 34.6149 48.1981 34.7523 47.7945L37.1736 41.067C38.1834 38.2611 38.8215 35.3351 39.0716 32.3635C39.108 31.9344 39.3132 31.5372 39.6423 31.2593C39.9714 30.9814 40.3974 30.8455 40.8266 30.8815Z" fill="#075985" fill-opacity="0.5"/>
<path d="M15.6325 4.45253C18.8441 2.59831 22.4872 1.6222 26.1957 1.62231C29.9041 1.62243 33.5472 2.59878 36.7587 4.45321C39.9701 6.30763 42.6369 8.97479 44.4908 12.1866C46.3447 15.3984 47.3205 19.0416 47.32 22.75C47.32 23.181 47.1488 23.5943 46.844 23.8991C46.5393 24.2038 46.126 24.375 45.695 24.375C45.264 24.375 44.8507 24.2038 44.5459 23.8991C44.2412 23.5943 44.07 23.181 44.07 22.75C44.071 19.6118 43.2459 16.5286 41.6774 13.8104C40.109 11.0922 37.8526 8.83486 35.1351 7.26529C32.4176 5.69571 29.3347 4.86925 26.1965 4.86898C23.0583 4.86872 19.9753 5.69466 17.2575 7.26378C16.8861 7.45805 16.454 7.50132 16.0515 7.38454C15.649 7.26777 15.3071 6.99998 15.0974 6.63711C14.8876 6.27425 14.8262 5.84437 14.9259 5.43729C15.0256 5.0302 15.2788 4.67738 15.6325 4.45253ZM12.74 8.53778C12.8992 8.6799 13.0288 8.85198 13.1215 9.04421C13.2142 9.23643 13.2681 9.44504 13.2802 9.6581C13.2923 9.87117 13.2623 10.0845 13.1919 10.286C13.1215 10.4875 13.0121 10.6731 12.87 10.8323C9.93327 14.1065 8.31247 18.3518 8.31997 22.75C8.31997 23.181 8.14877 23.5943 7.84402 23.8991C7.53927 24.2038 7.12595 24.375 6.69497 24.375C6.26399 24.375 5.85067 24.2038 5.54592 23.8991C5.24118 23.5943 5.06997 23.181 5.06997 22.75C5.06997 17.342 7.10447 12.402 10.4487 8.66778C10.5908 8.50858 10.7629 8.37893 10.9552 8.28623C11.1474 8.19354 11.356 8.13962 11.569 8.12755C11.7821 8.11547 11.9955 8.14549 12.1969 8.21588C12.3984 8.28627 12.5808 8.39565 12.74 8.53778ZM6.22372 26.065C6.63812 26.1817 6.98928 26.4581 7.20011 26.8334C7.41094 27.2088 7.46421 27.6524 7.34822 28.067L4.81647 37.0598C4.76593 37.2728 4.67285 37.4735 4.54283 37.6496C4.4128 37.8258 4.24851 37.9739 4.05982 38.085C3.87113 38.1961 3.66194 38.2679 3.4448 38.2961C3.22766 38.3244 3.00706 38.3084 2.79624 38.2492C2.58542 38.1901 2.38873 38.0889 2.21799 37.9518C2.04725 37.8147 1.90597 37.6445 1.80265 37.4515C1.69932 37.2584 1.63608 37.0465 1.61672 36.8284C1.59735 36.6103 1.62227 36.3905 1.68997 36.1823L4.21847 27.1895C4.27623 26.984 4.37392 26.7918 4.50597 26.624C4.63802 26.4563 4.80185 26.3162 4.98807 26.2117C5.1743 26.1073 5.37928 26.0406 5.5913 26.0154C5.80332 25.9903 6.01822 26.0071 6.22372 26.065ZM45.7112 27.6283C45.9246 27.6325 46.1351 27.6787 46.3307 27.7643C46.5262 27.8499 46.703 27.9732 46.8508 28.1271C46.9987 28.281 47.1148 28.4626 47.1926 28.6614C47.2703 28.8602 47.308 29.0724 47.3037 29.2858C47.2062 34.1575 46.7805 39.117 44.941 44.018L44.7135 44.6258C44.5543 45.0182 44.2482 45.3331 43.8604 45.5032C43.4725 45.6733 43.0336 45.6853 42.637 45.5366C42.2405 45.3879 41.9177 45.0902 41.7373 44.707C41.557 44.3238 41.5333 43.8854 41.6715 43.485L41.899 42.8773C43.5435 38.4898 43.9595 33.9723 44.0537 29.2208C44.058 29.0074 44.1042 28.7969 44.1898 28.6013C44.2754 28.4058 44.3986 28.229 44.5526 28.0811C44.7065 27.9333 44.888 27.8172 45.0868 27.7394C45.2856 27.6617 45.4978 27.624 45.7112 27.6283Z" fill="#075985" fill-opacity="0.5"/>
</svg>
