<svg width="20" height="20" viewBox="0 0 20 20" fill="none" xmlns="http://www.w3.org/2000/svg">
<g clip-path="url(#clip0_19_115)">
<path fill-rule="evenodd" clip-rule="evenodd" d="M0 0H1.25V18.75H20V20H0V0ZM18.5212 14.8588C18.5848 14.8067 18.6375 14.7427 18.6763 14.6703C18.7151 14.5979 18.7393 14.5186 18.7474 14.4369C18.7555 14.3552 18.7475 14.2726 18.7237 14.194C18.6999 14.1154 18.6608 14.0423 18.6087 13.9787L12.9838 7.10375C12.9285 7.03627 12.8597 6.98111 12.7818 6.94182C12.7039 6.90253 12.6186 6.87998 12.5315 6.87562C12.4444 6.87127 12.3573 6.8852 12.2759 6.91652C12.1945 6.94785 12.1205 6.99587 12.0588 7.0575L8.825 10.2913L4.255 4.0075C4.15503 3.88038 4.00967 3.79696 3.84948 3.77477C3.68929 3.75258 3.52673 3.79334 3.39596 3.8885C3.2652 3.98366 3.17641 4.1258 3.14826 4.28506C3.12011 4.44431 3.15479 4.60828 3.245 4.7425L8.245 11.6175C8.29807 11.6906 8.36636 11.7513 8.44516 11.7955C8.52396 11.8397 8.61141 11.8663 8.70146 11.8734C8.79152 11.8805 8.88205 11.868 8.96682 11.8368C9.05159 11.8056 9.12859 11.7563 9.1925 11.6925L12.4538 8.43L17.6413 14.7713C17.6933 14.8348 17.7573 14.8875 17.8297 14.9263C17.9021 14.9651 17.9814 14.9893 18.0631 14.9974C18.1448 15.0055 18.2274 14.9975 18.306 14.9737C18.3846 14.9499 18.4577 14.9108 18.5212 14.8588Z" fill="#B0BBC5"/>
</g>
<defs>
<clipPath id="clip0_19_115">
<rect width="20" height="20" fill="white"/>
</clipPath>
</defs>
</svg>
