<svg width="48" height="24" viewBox="0 0 48 24" fill="none" xmlns="http://www.w3.org/2000/svg">
<g clip-path="url(#clip0_13_87)">
<path d="M46.3544 23.1828C47.2632 23.1828 48 22.426 48 21.4924C48 20.5589 47.2632 19.8021 46.3544 19.8021C45.4456 19.8021 44.7089 20.5589 44.7089 21.4924C44.7089 22.426 45.4456 23.1828 46.3544 23.1828Z" fill="#BFDB38"/>
<path d="M21.8886 10.3586C21.8991 11.474 21.8195 12.5884 21.6506 13.6903H7.03101C7.42993 16.7637 9.24322 18.3003 12.4709 18.3003C14.0348 18.3003 15.5104 17.7136 17.0608 17.6019C18.7737 17.4091 20.5069 17.59 22.147 18.1327C21.2835 20.1234 20.1071 21.9464 18.1283 22.7776C16.0961 23.6108 13.9244 24.0261 11.7365 24C8.25045 24 5.42625 22.9476 3.2639 20.8428C1.10156 18.7381 0.0135835 15.83 -1.61957e-05 12.1187C-0.0587757 10.5134 0.200193 8.91251 0.761214 7.41296C1.32224 5.91341 2.17364 4.54639 3.2639 3.39464C4.33148 2.27797 5.61222 1.4 7.02576 0.815833C8.43929 0.231667 9.95511 -0.0460886 11.4781 -3.60375e-06C14.5924 -3.60375e-06 17.1129 0.942953 19.0395 2.82887C20.0001 3.80991 20.7499 4.9868 21.2406 6.28368C21.7313 7.58057 21.9521 8.96868 21.8886 10.3586ZM7.03101 9.69499H15.3608C15.3984 8.61002 15.0719 7.54473 14.436 6.67753C14.0744 6.25132 13.6251 5.91303 13.1206 5.68713C12.6161 5.46122 12.069 5.35337 11.5189 5.37136C10.9523 5.34225 10.3858 5.43052 9.85313 5.63091C9.32044 5.83131 8.83244 6.13973 8.41817 6.53783C7.61369 7.39337 7.12338 8.50931 7.03101 9.69499Z" fill="white"/>
<path d="M40.9825 6.41211C41.8627 5.22936 42.3211 3.77221 42.2813 2.28405C42.2861 1.74631 42.2081 1.21118 42.0501 0.698486H23.7246C23.4711 1.59229 23.3473 2.51962 23.3574 3.45052C23.3378 4.44627 23.4616 5.43953 23.7246 6.39814H34.1351L32.8907 7.79511L24.5133 17.7765C23.6346 18.8174 23.1516 20.1495 23.1534 21.5274C23.1437 22.0946 23.2383 22.6586 23.4322 23.1898H33.1015L33.2375 22.7776C33.9086 20.6565 35.2515 18.8271 37.0522 17.5809L37.2018 17.4831H31.9592L33.2511 16.0861L40.9825 6.41211Z" fill="white"/>
<path d="M42.6077 18.3772C42.5771 18.7502 42.5249 19.1211 42.4514 19.4878C42.3524 20.1069 42.1349 20.6997 41.8116 21.232C41.4883 21.7643 41.0656 22.2255 40.5678 22.5891C40.1402 22.8845 39.6593 23.0888 39.1534 23.1898H35.6107L35.0599 23.1269C35.5676 21.5056 36.593 20.1077 37.9703 19.1595C38.9431 18.5466 40.0742 18.2519 41.2138 18.3143C41.5198 18.3143 41.8394 18.3143 42.1658 18.3492L42.6077 18.3772Z" fill="#BFDB38"/>
</g>
<defs>
<clipPath id="clip0_13_87">
<rect width="48" height="24" fill="white"/>
</clipPath>
</defs>
</svg>
