<svg width="213" height="53" viewBox="0 0 213 53" fill="none" xmlns="http://www.w3.org/2000/svg">
<g clip-path="url(#clip0_4_134)">
<path d="M90.6242 44.1323C92.4036 44.1323 93.846 42.6896 93.846 40.9101C93.846 39.1305 92.4036 37.6879 90.6242 37.6879C88.8448 37.6879 87.4023 39.1305 87.4023 40.9101C87.4023 42.6896 88.8448 44.1323 90.6242 44.1323Z" fill="#BFDB38"/>
<path d="M42.7903 19.746C42.8103 21.8638 42.6602 23.9799 42.3415 26.0737H13.7489C14.5267 31.9257 18.0566 34.8517 24.3388 34.8517C27.3901 34.8517 30.2709 33.7387 33.3132 33.5323C36.658 33.1622 40.0432 33.5017 43.248 34.5285C41.5518 38.3252 39.2184 41.7987 35.3953 43.3783C31.4177 44.9664 27.1674 45.7593 22.8849 45.7119C16.0763 45.7119 10.56 43.7044 6.33597 39.6894C2.11199 35.6744 0 30.1366 0 23.0759C0 16.3144 2.12695 10.7795 6.38085 6.4713C8.46391 4.34068 10.9663 2.66547 13.7299 1.55159C16.4934 0.437705 19.458 -0.0906256 22.4362 1.2638e-06C28.5328 1.2638e-06 33.4478 1.79509 37.1812 5.38527C40.9146 8.97545 42.7843 13.7624 42.7903 19.746ZM13.7489 18.4535H30.0375C30.1108 16.3902 29.4776 14.3637 28.2426 12.7092C27.0461 11.1714 25.1465 10.3427 22.5439 10.223C21.4371 10.1676 20.3305 10.3352 19.2898 10.7161C18.2491 11.0969 17.2957 11.6832 16.4861 12.44C14.899 14.0629 13.9305 16.1907 13.7489 18.4535Z" fill="#36C186"/>
<path d="M80.133 12.2066C81.8545 9.9572 82.7511 7.18466 82.6728 4.35309C82.6871 3.30306 82.5326 2.25755 82.2151 1.25657H46.389C45.8955 2.96251 45.6536 4.73137 45.6711 6.5072C45.6347 8.40214 45.8766 10.2922 46.389 12.1169H66.7521L64.3021 14.7377L47.9326 33.8464C46.2284 35.8323 45.2951 38.3649 45.3031 40.9819C45.2915 42.0596 45.4771 43.1303 45.8506 44.1412H64.6969L64.9572 43.3604C66.2762 39.329 68.9043 35.8541 72.424 33.4874L72.7111 33.3079H62.4982L65.029 30.6152L80.133 12.2066Z" fill="#36C186"/>
<path d="M83.3099 35.0042C83.2511 35.7128 83.1492 36.4172 83.0048 37.1135C82.8097 38.2914 82.3843 39.4194 81.7529 40.4328C81.1216 41.4461 80.2966 42.3251 79.3253 43.0193C78.4887 43.5851 77.5448 43.9731 76.5522 44.1592H69.6239L68.5559 44.0515C69.5446 40.962 71.5501 38.2983 74.2457 36.4942C76.1464 35.3296 78.3558 34.7694 80.5817 34.8876C81.192 34.8876 81.8112 34.8876 82.4484 34.9504C82.7266 34.9414 83.0317 35.0042 83.3099 35.0042Z" fill="#BFDB38"/>
<path d="M155.079 28.7214C155.09 29.9233 155.003 31.124 154.819 32.3116H138.665C139.113 35.6325 141.112 37.29 144.659 37.284C146.392 37.284 148.025 36.6557 149.748 36.539C151.646 36.3335 153.565 36.5261 155.384 37.1045C154.424 39.2586 153.095 41.2242 150.897 42.1218C148.642 43.0203 146.234 43.4685 143.807 43.4412C140.353 43.5909 136.98 42.3643 134.429 40.0305C132.035 37.7567 130.839 34.6213 130.839 30.6242C130.77 28.8951 131.053 27.17 131.67 25.5532C132.287 23.9365 133.225 22.4617 134.429 21.218C135.619 20.007 137.048 19.0575 138.626 18.4301C140.204 17.8026 141.895 17.5111 143.592 17.5739C145.116 17.508 146.639 17.7436 148.073 18.2673C149.507 18.7909 150.823 19.5923 151.947 20.6256C153.002 21.6839 153.825 22.9502 154.364 24.3439C154.904 25.7377 155.147 27.2285 155.079 28.7214ZM138.62 28.0034H147.845C147.887 26.8323 147.526 25.6824 146.822 24.7453C146.423 24.2845 145.925 23.9188 145.366 23.675C144.807 23.4312 144.201 23.3155 143.592 23.3362C142.965 23.3034 142.338 23.3978 141.749 23.6137C141.16 23.8297 140.62 24.1627 140.163 24.5927C139.256 25.5221 138.709 26.7437 138.62 28.0393V28.0034Z" fill="#1E5287"/>
<path d="M111.113 17.5201C113.017 17.475 114.917 17.7171 116.749 18.2381C116.771 20.6189 116.015 22.9417 114.595 24.853C113.644 24.6006 112.662 24.4798 111.678 24.494C110.392 24.4389 109.111 24.6848 107.936 25.212V42.6423C105.406 43.0493 102.828 43.0493 100.299 42.6423V21.2628C101.608 20.152 103.099 19.2746 104.705 18.6689C106.746 17.874 108.923 17.4838 111.113 17.5201Z" fill="#1E5287"/>
<path d="M126.361 13.9209C125.807 14.4715 125.103 14.8461 124.338 14.9976C123.572 15.1491 122.778 15.0707 122.057 14.7723C121.336 14.474 120.719 13.969 120.283 13.3208C119.848 12.6726 119.615 11.9102 119.612 11.1296C119.603 10.6129 119.702 10.1001 119.903 9.62399C120.104 9.14792 120.402 8.71912 120.778 8.36512C121.521 7.62956 122.524 7.21693 123.57 7.21693C124.615 7.21693 125.618 7.62956 126.361 8.36512C126.735 8.72048 127.032 9.14953 127.233 9.62529C127.434 10.101 127.534 10.6132 127.527 11.1296C127.533 11.6498 127.433 12.1658 127.232 12.6459C127.032 13.1259 126.735 13.5598 126.361 13.9209ZM123.516 42.9475C122.244 42.9455 120.975 42.8435 119.719 42.6423V18.3368C120.972 18.11 122.243 18.0078 123.516 18.0317C124.806 18.0125 126.095 18.1146 127.366 18.3368V42.6423C126.093 42.8503 124.805 42.9524 123.516 42.9475Z" fill="#1E5287"/>
<path d="M171.744 17.4662C175.781 17.3228 179.745 18.5713 182.971 21.0025V41.1524C182.971 45.0119 181.802 47.9528 179.462 49.9753C177.123 51.9977 174.039 53.006 170.21 53C164.939 53 160.939 51.4772 158.211 48.4315C158.401 47.3712 158.868 46.3801 159.566 45.5594C160.306 44.6691 161.274 43.996 162.366 43.6117C163.277 44.6877 164.417 45.5461 165.703 46.1239C166.989 46.7017 168.388 46.9841 169.797 46.9506C173.488 46.9506 175.334 45.4786 175.334 42.5346V41.6371C173.037 42.2736 170.625 42.374 168.283 41.9305C165.941 41.487 163.733 40.5114 161.828 39.0791C159.351 36.9908 158.112 34.0678 158.112 30.3101C158.112 26.3429 159.419 23.2075 162.034 20.9038C164.724 18.578 168.191 17.3506 171.744 17.4662ZM171.897 36.0813C173.072 36.0981 174.239 35.8878 175.334 35.462V24.5927C174.238 24.1643 173.074 23.9392 171.897 23.9285C170.286 23.8788 168.721 24.4694 167.544 25.571C166.949 26.1506 166.485 26.8511 166.183 27.6252C165.881 28.3993 165.749 29.2291 165.794 30.0588C165.755 30.8709 165.886 31.6822 166.178 32.4409C166.47 33.1997 166.917 33.8893 167.491 34.4657C168.081 35.0146 168.774 35.4402 169.531 35.7176C170.288 35.995 171.092 36.1187 171.897 36.0813Z" fill="#1E5287"/>
<path d="M199.619 43.4591C196.085 43.6067 192.638 42.3444 190.034 39.9497C187.575 37.6101 186.346 34.4657 186.346 30.5165C186.275 28.7674 186.574 27.0229 187.223 25.3973C187.873 23.7717 188.858 22.3016 190.115 21.0833C191.402 19.8811 192.913 18.945 194.563 18.3289C196.212 17.7128 197.967 17.4287 199.727 17.4931C201.483 17.4233 203.235 17.705 204.881 18.3215C206.527 18.938 208.033 19.8769 209.312 21.0833C210.547 22.3136 211.513 23.7877 212.148 25.4118C212.783 27.0358 213.073 28.7742 213 30.5165C213.069 32.2573 212.768 33.993 212.119 35.6095C211.469 37.226 210.485 38.6868 209.231 39.8958C207.943 41.0949 206.431 42.0271 204.781 42.6387C203.132 43.2502 201.377 43.5291 199.619 43.4591ZM195.5 35.3094C196.035 35.8766 196.68 36.3285 197.397 36.6373C198.113 36.9462 198.884 37.1055 199.664 37.1055C200.444 37.1055 201.215 36.9462 201.931 36.6373C202.648 36.3285 203.293 35.8766 203.828 35.3094C204.87 33.9356 205.394 32.2386 205.309 30.5165C205.401 28.7854 204.876 27.0777 203.828 25.6967C203.293 25.1295 202.648 24.6776 201.931 24.3688C201.215 24.0599 200.444 23.9006 199.664 23.9006C198.884 23.9006 198.113 24.0599 197.397 24.3688C196.68 24.6776 196.035 25.1295 195.5 25.6967C194.427 27.0665 193.888 28.7792 193.983 30.5165C193.895 32.2447 194.433 33.9467 195.5 35.3094Z" fill="#1E5287"/>
</g>
<defs>
<clipPath id="clip0_4_134">
<rect width="213" height="53" fill="white"/>
</clipPath>
</defs>
</svg>
