<svg width="58" height="58" viewBox="0 0 58 58" fill="none" xmlns="http://www.w3.org/2000/svg">
<circle cx="29" cy="29" r="27" fill="#E5F6FF" stroke="#F2FBFF" stroke-width="4"/>
<g clip-path="url(#clip0_19_366)">
<path fill-rule="evenodd" clip-rule="evenodd" d="M27.457 14.9375C28.3945 13.9512 29 13.375 29 13.375C29.2129 14.084 29.457 14.7578 29.7246 15.4023C31.3105 19.2031 33.7734 21.9453 35.9688 24.3867C38.5273 27.2344 40.7188 29.6738 40.7188 32.9062C40.7188 36.0143 39.4841 38.995 37.2864 41.1927C35.0887 43.3903 32.108 44.625 29 44.625C25.892 44.625 22.9113 43.3903 20.7136 41.1927C18.5159 38.995 17.2813 36.0143 17.2812 32.9062C17.2812 26.3984 24.2734 18.291 27.457 14.9375ZM28.2637 16.9316C27.0094 18.2889 25.8174 19.7025 24.6914 21.168C23.2734 23.0234 21.8867 25.0898 20.8633 27.1641C19.8281 29.2598 19.2344 31.2227 19.2344 32.9062C19.2344 35.4963 20.2633 37.9802 22.0947 39.8116C23.9261 41.643 26.41 42.6719 29 42.6719C31.59 42.6719 34.0739 41.643 35.9053 39.8116C37.7367 37.9802 38.7656 35.4963 38.7656 32.9062C38.7656 30.5605 37.2109 28.6934 34.5059 25.6797L34.4473 25.6172C32.418 23.3555 29.9766 20.6426 28.2637 16.9316Z" fill="#075985"/>
<path fill-rule="evenodd" clip-rule="evenodd" d="M22.2676 28.5625C23.8691 25.3574 25.6211 23.1855 26.3555 22.4492L27.7383 23.832C27.1719 24.3984 25.5352 26.3926 24.0137 29.4375L22.2676 28.5625Z" fill="#075985"/>
</g>
<defs>
<clipPath id="clip0_19_366">
<rect width="31.25" height="31.25" fill="white" transform="translate(13.375 13.375)"/>
</clipPath>
</defs>
</svg>
