<svg width="21" height="21" viewBox="0 0 21 21" fill="none" xmlns="http://www.w3.org/2000/svg">
<path d="M7.875 0.364717C8.00312 0.520396 8.08161 0.710918 8.10032 0.911666C8.11904 1.11241 8.07713 1.31416 7.98 1.49084C7.22119 2.88403 6.82491 4.44567 6.82763 6.03209C6.82763 11.3097 11.13 15.5832 16.4325 15.5832C17.1242 15.5832 17.7975 15.511 18.4446 15.3732C18.6429 15.3302 18.8495 15.3466 19.0386 15.4204C19.2277 15.4942 19.3908 15.622 19.5077 15.7879C19.631 15.9604 19.6939 16.1689 19.6866 16.3809C19.6792 16.5928 19.602 16.7964 19.467 16.96C18.4376 18.2245 17.139 19.2433 15.6658 19.9422C14.1926 20.6411 12.582 21.0024 10.9515 20.9998C4.90087 20.9998 0 16.1252 0 10.1192C0 5.59897 2.77463 1.72184 6.72525 0.0785925C6.92204 -0.00457823 7.14051 -0.0216486 7.34783 0.0299455C7.55516 0.0815397 7.74014 0.199012 7.875 0.364717ZM6.37612 1.72053C4.85704 2.53537 3.58711 3.74656 2.7013 5.22538C1.81548 6.7042 1.34689 8.39539 1.34531 10.1192C1.34531 15.3955 5.649 19.669 10.9515 19.669C12.2213 19.6712 13.4789 19.4215 14.6515 18.9344C15.8241 18.4473 16.8885 17.7325 17.7831 16.8313C17.3407 16.8865 16.8906 16.914 16.4325 16.914C10.3819 16.914 5.48231 12.0394 5.48231 6.0334C5.48231 4.50172 5.79994 3.04353 6.37612 1.72053Z" fill="#85909A"/>
</svg>
