<svg width="46" height="38" viewBox="0 0 46 38" fill="none" xmlns="http://www.w3.org/2000/svg">
<g clip-path="url(#clip0_3_147)">
<path d="M0.0809892 7.4565C0.192035 7.17966 0.40848 6.95825 0.682734 6.84095C0.956987 6.72366 1.2666 6.72008 1.54349 6.831L5.49674 8.41275C6.30126 8.7345 7.19872 8.7345 8.00324 8.41275L10.2847 7.49925C11.6258 6.9628 13.1219 6.9628 14.463 7.49925L16.7467 8.41275C17.5513 8.7345 18.4487 8.7345 19.2532 8.41275L21.5347 7.49925C22.8758 6.9628 24.3719 6.9628 25.713 7.49925L27.9967 8.41275C28.8013 8.7345 29.6987 8.7345 30.5032 8.41275L34.4565 6.831C34.5943 6.77242 34.7423 6.74193 34.892 6.74131C35.0417 6.74069 35.1901 6.76996 35.3283 6.82739C35.4666 6.88483 35.592 6.96928 35.6971 7.0758C35.8023 7.18231 35.8852 7.30876 35.9409 7.44771C35.9966 7.58667 36.024 7.73534 36.0215 7.88503C36.019 8.03471 35.9867 8.18239 35.9264 8.31942C35.8661 8.45644 35.7791 8.58006 35.6704 8.68301C35.5617 8.78597 35.4336 8.8662 35.2935 8.919L31.338 10.5008C29.9969 11.0372 28.5008 11.0372 27.1597 10.5008L24.8782 9.58725C24.0737 9.2655 23.1763 9.2655 22.3717 9.58725L20.088 10.5008C18.7469 11.0372 17.2508 11.0372 15.9097 10.5008L13.6282 9.58725C12.8237 9.2655 11.9263 9.2655 11.1217 9.58725L8.83799 10.5008C7.4969 11.0372 6.00083 11.0372 4.65974 10.5008L0.706489 8.919C0.429646 8.80796 0.208234 8.59151 0.0909381 8.31726C-0.0263581 8.043 -0.0299367 7.73339 0.0809892 7.4565ZM0.0809892 14.2065C0.192035 13.9297 0.40848 13.7082 0.682734 13.591C0.956987 13.4737 1.2666 13.4701 1.54349 13.581L5.49674 15.1628C6.30126 15.4845 7.19872 15.4845 8.00324 15.1628L10.2847 14.2493C11.6258 13.7128 13.1219 13.7128 14.463 14.2493L16.7467 15.1628C17.5513 15.4845 18.4487 15.4845 19.2532 15.1628L21.5347 14.2493C22.8758 13.7128 24.3719 13.7128 25.713 14.2493L27.9967 15.1628C28.8013 15.4845 29.6987 15.4845 30.5032 15.1628L34.4565 13.581C34.5943 13.5224 34.7423 13.4919 34.892 13.4913C35.0417 13.4907 35.1901 13.52 35.3283 13.5774C35.4666 13.6348 35.592 13.7193 35.6971 13.8258C35.8023 13.9323 35.8852 14.0588 35.9409 14.1977C35.9966 14.3367 36.024 14.4853 36.0215 14.635C36.019 14.7847 35.9867 14.9324 35.9264 15.0694C35.8661 15.2064 35.7791 15.3301 35.6704 15.433C35.5617 15.536 35.4336 15.6162 35.2935 15.669L31.338 17.2508C29.9969 17.7872 28.5008 17.7872 27.1597 17.2508L24.8782 16.3373C24.0737 16.0155 23.1763 16.0155 22.3717 16.3373L20.088 17.2508C18.7469 17.7872 17.2508 17.7872 15.9097 17.2508L13.6282 16.3373C12.8237 16.0155 11.9263 16.0155 11.1217 16.3373L8.83799 17.2508C7.4969 17.7872 6.00083 17.7872 4.65974 17.2508L0.706489 15.669C0.429646 15.558 0.208234 15.3415 0.0909381 15.0673C-0.0263581 14.793 -0.0299367 14.4834 0.0809892 14.2065ZM0.0809892 20.9565C0.192035 20.6797 0.40848 20.4582 0.682734 20.341C0.956987 20.2237 1.2666 20.2201 1.54349 20.331L5.49674 21.9128C6.30126 22.2345 7.19872 22.2345 8.00324 21.9128L10.2847 20.9993C11.6258 20.4628 13.1219 20.4628 14.463 20.9993L16.7467 21.9128C17.5513 22.2345 18.4487 22.2345 19.2532 21.9128L21.5347 20.9993C22.8758 20.4628 24.3719 20.4628 25.713 20.9993L27.9967 21.9128C28.8013 22.2345 29.6987 22.2345 30.5032 21.9128L34.4565 20.331C34.5943 20.2724 34.7423 20.2419 34.892 20.2413C35.0417 20.2407 35.1901 20.27 35.3283 20.3274C35.4666 20.3848 35.592 20.4693 35.6971 20.5758C35.8023 20.6823 35.8852 20.8088 35.9409 20.9477C35.9966 21.0867 36.024 21.2353 36.0215 21.385C36.019 21.5347 35.9867 21.6824 35.9264 21.8194C35.8661 21.9564 35.7791 22.0801 35.6704 22.183C35.5617 22.286 35.4336 22.3662 35.2935 22.419L31.338 24.0008C29.9969 24.5372 28.5008 24.5372 27.1597 24.0008L24.8782 23.0873C24.0737 22.7655 23.1763 22.7655 22.3717 23.0873L20.088 24.0008C18.7469 24.5372 17.2508 24.5372 15.9097 24.0008L13.6282 23.0873C12.8237 22.7655 11.9263 22.7655 11.1217 23.0873L8.83799 24.0008C7.4969 24.5372 6.00083 24.5372 4.65974 24.0008L0.706489 22.419C0.429646 22.308 0.208234 22.0915 0.0909381 21.8173C-0.0263581 21.543 -0.0299367 21.2334 0.0809892 20.9565ZM0.0809892 27.7065C0.192035 27.4297 0.40848 27.2082 0.682734 27.0909C0.956987 26.9737 1.2666 26.9701 1.54349 27.081L5.49674 28.6628C6.30126 28.9845 7.19872 28.9845 8.00324 28.6628L10.2847 27.7493C11.6258 27.2128 13.1219 27.2128 14.463 27.7493L16.7467 28.6628C17.5513 28.9845 18.4487 28.9845 19.2532 28.6628L21.5347 27.7493C22.8758 27.2128 24.3719 27.2128 25.713 27.7493L27.9967 28.6628C28.8013 28.9845 29.6987 28.9845 30.5032 28.6628L34.4565 27.081C34.5943 27.0224 34.7423 26.9919 34.892 26.9913C35.0417 26.9907 35.1901 27.02 35.3283 27.0774C35.4666 27.1348 35.592 27.2193 35.6971 27.3258C35.8023 27.4323 35.8852 27.5588 35.9409 27.6977C35.9966 27.8367 36.024 27.9853 36.0215 28.135C36.019 28.2847 35.9867 28.4324 35.9264 28.5694C35.8661 28.7064 35.7791 28.8301 35.6704 28.933C35.5617 29.036 35.4336 29.1162 35.2935 29.169L31.338 30.7508C29.9969 31.2872 28.5008 31.2872 27.1597 30.7508L24.8782 29.8373C24.0737 29.5155 23.1763 29.5155 22.3717 29.8373L20.088 30.7508C18.7469 31.2872 17.2508 31.2872 15.9097 30.7508L13.6282 29.8373C12.8237 29.5155 11.9263 29.5155 11.1217 29.8373L8.83799 30.7508C7.4969 31.2872 6.00083 31.2872 4.65974 30.7508L0.706489 29.169C0.429646 29.058 0.208234 28.8415 0.0909381 28.5673C-0.0263581 28.293 -0.0299367 27.9834 0.0809892 27.7065Z" fill="#85909A"/>
</g>
<circle cx="36.5" cy="28.5" r="9.5" fill="#10B981"/>
<g clip-path="url(#clip1_3_147)">
<path d="M36.5 25.4062C36.5 25.3151 36.4638 25.2276 36.3993 25.1632C36.3349 25.0987 36.2474 25.0625 36.1562 25.0625C36.0651 25.0625 35.9776 25.0987 35.9132 25.1632C35.8487 25.2276 35.8125 25.3151 35.8125 25.4062V29.1875C35.8125 29.2481 35.8286 29.3076 35.859 29.36C35.8894 29.4124 35.9331 29.4558 35.9857 29.4859L38.392 30.8609C38.471 30.9036 38.5635 30.9136 38.6498 30.889C38.7361 30.8644 38.8094 30.8069 38.8539 30.729C38.8984 30.6511 38.9107 30.5588 38.8881 30.4719C38.8655 30.3851 38.8099 30.3105 38.733 30.2641L36.5 28.9881V25.4062Z" fill="white"/>
<path d="M36.5 34C37.9587 34 39.3576 33.4205 40.3891 32.3891C41.4205 31.3576 42 29.9587 42 28.5C42 27.0413 41.4205 25.6424 40.3891 24.6109C39.3576 23.5795 37.9587 23 36.5 23C35.0413 23 33.6424 23.5795 32.6109 24.6109C31.5795 25.6424 31 27.0413 31 28.5C31 29.9587 31.5795 31.3576 32.6109 32.3891C33.6424 33.4205 35.0413 34 36.5 34ZM41.3125 28.5C41.3125 29.7764 40.8055 31.0004 39.903 31.903C39.0004 32.8055 37.7764 33.3125 36.5 33.3125C35.2236 33.3125 33.9996 32.8055 33.097 31.903C32.1945 31.0004 31.6875 29.7764 31.6875 28.5C31.6875 27.2236 32.1945 25.9996 33.097 25.097C33.9996 24.1945 35.2236 23.6875 36.5 23.6875C37.7764 23.6875 39.0004 24.1945 39.903 25.097C40.8055 25.9996 41.3125 27.2236 41.3125 28.5Z" fill="white"/>
</g>
<defs>
<clipPath id="clip0_3_147">
<rect width="36" height="36" fill="white"/>
</clipPath>
<clipPath id="clip1_3_147">
<rect width="11" height="11" fill="white" transform="translate(31 23)"/>
</clipPath>
</defs>
</svg>
