<svg width="47" height="40" viewBox="0 0 47 40" fill="none" xmlns="http://www.w3.org/2000/svg">
<path d="M2.49997 8.75C2.49997 7.75544 2.89506 6.80161 3.59832 6.09835C4.30158 5.39509 5.25541 5 6.24997 5H13.16C15.555 5 17.56 6.4 18.9375 7.96C19.9625 9.12 21.2 10 22.5 10H33.75C34.7445 10 35.6984 10.3951 36.4016 11.0983C37.1049 11.8016 37.5 12.7554 37.5 13.75V15.35C38.925 16.0125 39.85 17.54 39.64 19.215L38.04 32.025C37.8509 33.5376 37.1156 34.929 35.9724 35.9373C34.8292 36.9456 33.3568 37.5014 31.8325 37.5H8.16497C6.64146 37.5002 5.17035 36.9439 4.02816 35.9357C2.88598 34.9274 2.15139 33.5368 1.96247 32.025L0.362471 19.215C0.263903 18.4275 0.417744 17.629 0.801851 16.9344C1.18596 16.2399 1.78052 15.6851 2.49997 15.35V8.75ZM4.99997 15H35V13.75C35 13.4185 34.8683 13.1005 34.6339 12.8661C34.3994 12.6317 34.0815 12.5 33.75 12.5H22.5C20.09 12.5 18.225 10.9275 17.065 9.615C15.935 8.335 14.55 7.5 13.16 7.5H6.24997C5.91845 7.5 5.60051 7.6317 5.36609 7.86612C5.13167 8.10054 4.99997 8.41848 4.99997 8.75V15ZM4.08247 17.5C3.90526 17.5001 3.73009 17.5378 3.56857 17.6107C3.40705 17.6836 3.26288 17.79 3.14562 17.9229C3.02836 18.0557 2.94069 18.212 2.88843 18.3813C2.83616 18.5507 2.8205 18.7292 2.84247 18.905L4.44247 31.715C4.55584 32.6222 4.99674 33.4568 5.68226 34.0617C6.36778 34.6667 7.25069 35.0004 8.16497 35H31.835C32.7492 35.0004 33.6322 34.6667 34.3177 34.0617C35.0032 33.4568 35.4441 32.6222 35.5575 31.715L37.1575 18.905C37.1794 18.7292 37.1638 18.5507 37.1115 18.3813C37.0593 18.212 36.9716 18.0557 36.8543 17.9229C36.7371 17.79 36.5929 17.6836 36.4314 17.6107C36.2699 17.5378 36.0947 17.5001 35.9175 17.5H4.08247Z" fill="#85909A"/>
<circle cx="37.5" cy="30.5" r="9.5" fill="#10B981"/>
<g clip-path="url(#clip0_3_148)">
<path d="M37.5 27.4062C37.5 27.3151 37.4638 27.2276 37.3993 27.1632C37.3349 27.0987 37.2474 27.0625 37.1562 27.0625C37.0651 27.0625 36.9776 27.0987 36.9132 27.1632C36.8487 27.2276 36.8125 27.3151 36.8125 27.4062V31.1875C36.8125 31.2481 36.8286 31.3076 36.859 31.36C36.8894 31.4124 36.9331 31.4558 36.9857 31.4859L39.392 32.8609C39.471 32.9036 39.5635 32.9136 39.6498 32.889C39.7361 32.8644 39.8094 32.8069 39.8539 32.729C39.8984 32.6511 39.9107 32.5588 39.8881 32.4719C39.8655 32.3851 39.8099 32.3105 39.733 32.2641L37.5 30.9881V27.4062Z" fill="white"/>
<path d="M37.5 36C38.9587 36 40.3576 35.4205 41.3891 34.3891C42.4205 33.3576 43 31.9587 43 30.5C43 29.0413 42.4205 27.6424 41.3891 26.6109C40.3576 25.5795 38.9587 25 37.5 25C36.0413 25 34.6424 25.5795 33.6109 26.6109C32.5795 27.6424 32 29.0413 32 30.5C32 31.9587 32.5795 33.3576 33.6109 34.3891C34.6424 35.4205 36.0413 36 37.5 36ZM42.3125 30.5C42.3125 31.7764 41.8055 33.0004 40.903 33.903C40.0004 34.8055 38.7764 35.3125 37.5 35.3125C36.2236 35.3125 34.9996 34.8055 34.097 33.903C33.1945 33.0004 32.6875 31.7764 32.6875 30.5C32.6875 29.2236 33.1945 27.9996 34.097 27.097C34.9996 26.1945 36.2236 25.6875 37.5 25.6875C38.7764 25.6875 40.0004 26.1945 40.903 27.097C41.8055 27.9996 42.3125 29.2236 42.3125 30.5Z" fill="white"/>
</g>
<defs>
<clipPath id="clip0_3_148">
<rect width="11" height="11" fill="white" transform="translate(32 25)"/>
</clipPath>
</defs>
</svg>
