<svg width="43" height="39" viewBox="0 0 43 39" fill="none" xmlns="http://www.w3.org/2000/svg">
<path fill-rule="evenodd" clip-rule="evenodd" d="M17.1238 1.9C18.2638 0.700625 19 0 19 0C19.2589 0.862125 19.5558 1.6815 19.8811 2.46525C21.8096 7.087 24.8045 10.4215 27.474 13.3903C30.5852 16.853 33.25 19.8194 33.25 23.75C33.25 27.5293 31.7487 31.1539 29.0763 33.8263C26.4039 36.4987 22.7793 38 19 38C15.2207 38 11.5961 36.4987 8.92373 33.8263C6.25133 31.1539 4.75 27.5293 4.75 23.75C4.75 15.8365 13.2525 5.97788 17.1238 1.9ZM18.1046 4.32487C16.5794 5.97535 15.13 7.69425 13.7608 9.47625C12.0365 11.7325 10.3503 14.2452 9.10575 16.7675C7.847 19.3159 7.125 21.7028 7.125 23.75C7.125 26.8994 8.37611 29.9199 10.6031 32.1469C12.8301 34.3739 15.8506 35.625 19 35.625C22.1494 35.625 25.1699 34.3739 27.3969 32.1469C29.6239 29.9199 30.875 26.8994 30.875 23.75C30.875 20.8976 28.9845 18.6271 25.6951 14.9625L25.6239 14.8865C23.1562 12.1363 20.1875 8.83737 18.1046 4.32487Z" fill="#85909A"/>
<path fill-rule="evenodd" clip-rule="evenodd" d="M10.8134 18.468C12.7609 14.5706 14.8913 11.9296 15.7843 11.0342L17.4658 12.7157C16.777 13.4045 14.7868 15.8294 12.9366 19.532L10.8134 18.468Z" fill="#85909A"/>
<circle cx="33.5" cy="29.5" r="9.5" fill="#10B981"/>
<g clip-path="url(#clip0_2_144)">
<path d="M33.5 26.4062C33.5 26.3151 33.4638 26.2276 33.3993 26.1632C33.3349 26.0987 33.2474 26.0625 33.1562 26.0625C33.0651 26.0625 32.9776 26.0987 32.9132 26.1632C32.8487 26.2276 32.8125 26.3151 32.8125 26.4062V30.1875C32.8125 30.2481 32.8286 30.3076 32.859 30.36C32.8894 30.4124 32.9331 30.4558 32.9857 30.4859L35.392 31.8609C35.471 31.9036 35.5635 31.9136 35.6498 31.889C35.7361 31.8644 35.8094 31.8069 35.8539 31.729C35.8984 31.6511 35.9107 31.5588 35.8881 31.4719C35.8655 31.3851 35.8099 31.3105 35.733 31.2641L33.5 29.9881V26.4062Z" fill="white"/>
<path d="M33.5 35C34.9587 35 36.3576 34.4205 37.3891 33.3891C38.4205 32.3576 39 30.9587 39 29.5C39 28.0413 38.4205 26.6424 37.3891 25.6109C36.3576 24.5795 34.9587 24 33.5 24C32.0413 24 30.6424 24.5795 29.6109 25.6109C28.5795 26.6424 28 28.0413 28 29.5C28 30.9587 28.5795 32.3576 29.6109 33.3891C30.6424 34.4205 32.0413 35 33.5 35ZM38.3125 29.5C38.3125 30.7764 37.8055 32.0004 36.903 32.903C36.0004 33.8055 34.7764 34.3125 33.5 34.3125C32.2236 34.3125 30.9996 33.8055 30.097 32.903C29.1945 32.0004 28.6875 30.7764 28.6875 29.5C28.6875 28.2236 29.1945 26.9996 30.097 26.097C30.9996 25.1945 32.2236 24.6875 33.5 24.6875C34.7764 24.6875 36.0004 25.1945 36.903 26.097C37.8055 26.9996 38.3125 28.2236 38.3125 29.5Z" fill="white"/>
</g>
<defs>
<clipPath id="clip0_2_144">
<rect width="11" height="11" fill="white" transform="translate(28 24)"/>
</clipPath>
</defs>
</svg>
