<svg width="72" height="72" viewBox="0 0 72 72" fill="none" xmlns="http://www.w3.org/2000/svg">
<path d="M36 70C54.7777 70 70 54.7777 70 36C70 17.2223 54.7777 2 36 2C17.2223 2 2 17.2223 2 36C2 54.7777 17.2223 70 36 70Z" fill="#FFEBB6" stroke="#FFF6DD" stroke-width="4"/>
<mask id="mask0_1_102" style="mask-type:luminance" maskUnits="userSpaceOnUse" x="18" y="18" width="36" height="36">
<path d="M54 18H18V54H54V18Z" fill="white"/>
</mask>
<g mask="url(#mask0_1_102)">
<path d="M36 25.875C36 25.577 35.881 25.29 35.67 25.08C35.46 24.869 35.173 24.75 34.875 24.75C34.577 24.75 34.29 24.869 34.08 25.08C33.869 25.29 33.75 25.577 33.75 25.875V38.25C33.75 38.448 33.803 38.643 33.902 38.815C34.002 38.986 34.145 39.128 34.317 39.227L42.192 43.727C42.45 43.866 42.753 43.899 43.036 43.819C43.318 43.738 43.558 43.55 43.704 43.295C43.849 43.04 43.89 42.738 43.816 42.454C43.742 42.169 43.56 41.925 43.308 41.773L36 37.598V25.875Z" fill="#E4A400"/>
<path d="M36 54C40.774 54 45.352 52.104 48.728 48.728C52.104 45.352 54 40.774 54 36C54 31.226 52.104 26.648 48.728 23.272C45.352 19.896 40.774 18 36 18C31.226 18 26.648 19.896 23.272 23.272C19.8964 26.648 18 31.226 18 36C18 40.774 19.8964 45.352 23.272 48.728C26.648 52.104 31.226 54 36 54ZM51.75 36C51.75 40.177 50.091 44.183 47.137 47.137C44.183 50.091 40.177 51.75 36 51.75C31.823 51.75 27.817 50.091 24.863 47.137C21.909 44.183 20.25 40.177 20.25 36C20.25 31.823 21.909 27.817 24.863 24.863C27.817 21.909 31.823 20.25 36 20.25C40.177 20.25 44.183 21.909 47.137 24.863C50.091 27.817 51.75 31.823 51.75 36Z" fill="#E4A400"/>
</g>
</svg>
