<svg width="72" height="72" viewBox="0 0 72 72" fill="none" xmlns="http://www.w3.org/2000/svg">
<path d="M36 70C54.7777 70 70 54.7777 70 36C70 17.2223 54.7777 2 36 2C17.2223 2 2 17.2223 2 36C2 54.7777 17.2223 70 36 70Z" fill="#BFDB38" fill-opacity="0.44" stroke="#F3F9D7" stroke-width="4"/>
<mask id="mask0_1_103" style="mask-type:luminance" maskUnits="userSpaceOnUse" x="18" y="19" width="35" height="35">
<path d="M53 19H18V54H53V19Z" fill="white"/>
</mask>
<g mask="url(#mask0_1_103)">
<path fill-rule="evenodd" clip-rule="evenodd" d="M18 19H20.188V51.812H53V54H18V19ZM50.412 45.003C50.523 44.912 50.616 44.8 50.684 44.673C50.751 44.546 50.794 44.408 50.808 44.265C50.822 44.122 50.808 43.977 50.766 43.84C50.725 43.702 50.656 43.574 50.565 43.463L40.722 31.432C40.625 31.313 40.504 31.217 40.368 31.148C40.232 31.079 40.083 31.04 39.93 31.032C39.778 31.025 39.625 31.049 39.483 31.104C39.34 31.159 39.211 31.243 39.103 31.351L33.444 37.01L25.446 26.013C25.271 25.791 25.017 25.645 24.737 25.606C24.456 25.567 24.172 25.638 23.943 25.805C23.714 25.971 23.559 26.22 23.509 26.499C23.46 26.778 23.521 27.064 23.679 27.299L32.429 39.331C32.522 39.459 32.641 39.565 32.779 39.642C32.917 39.719 33.07 39.766 33.228 39.778C33.385 39.791 33.544 39.769 33.692 39.714C33.84 39.66 33.975 39.574 34.087 39.462L39.794 33.752L48.872 44.85C48.963 44.961 49.075 45.053 49.202 45.121C49.329 45.189 49.467 45.231 49.61 45.245C49.753 45.26 49.898 45.246 50.035 45.204C50.173 45.162 50.301 45.094 50.412 45.003Z" fill="#9AB41D"/>
</g>
</svg>
