<svg width="61" height="61" viewBox="0 0 61 61" fill="none" xmlns="http://www.w3.org/2000/svg">
<circle cx="30.5" cy="30.5" r="28.5" fill="#D1EFE2" stroke="#E7FCF3" stroke-width="4"/>
<g clip-path="url(#clip0_20_614)">
<path d="M15.844 21.8765C15.9348 21.65 16.1119 21.4689 16.3362 21.373C16.5605 21.2771 16.8137 21.2741 17.0402 21.3649L20.2736 22.6586C20.9316 22.9217 21.6656 22.9217 22.3236 22.6586L24.1897 21.9114C25.2865 21.4727 26.5102 21.4727 27.6071 21.9114L29.4749 22.6586C30.133 22.9217 30.867 22.9217 31.525 22.6586L33.3911 21.9114C34.4879 21.4727 35.7116 21.4727 36.8085 21.9114L38.6763 22.6586C39.3344 22.9217 40.0684 22.9217 40.7264 22.6586L43.9598 21.3649C44.0725 21.317 44.1936 21.292 44.316 21.2915C44.4384 21.291 44.5598 21.3149 44.6728 21.3619C44.7859 21.4089 44.8885 21.478 44.9745 21.5651C45.0605 21.6522 45.1283 21.7556 45.1739 21.8693C45.2194 21.9829 45.2419 22.1045 45.2398 22.227C45.2378 22.3494 45.2113 22.4702 45.162 22.5822C45.1127 22.6943 45.0415 22.7954 44.9526 22.8796C44.8637 22.9638 44.7589 23.0295 44.6444 23.0726L41.4091 24.3664C40.3123 24.8051 39.0886 24.8051 37.9917 24.3664L36.1257 23.6192C35.4677 23.356 34.7337 23.356 34.0756 23.6192L32.2078 24.3664C31.1109 24.8051 29.8872 24.8051 28.7904 24.3664L26.9243 23.6192C26.2663 23.356 25.5323 23.356 24.8742 23.6192L23.0064 24.3664C21.9095 24.8051 20.6859 24.8051 19.589 24.3664L16.3556 23.0726C16.1292 22.9818 15.9481 22.8048 15.8521 22.5805C15.7562 22.3562 15.7533 22.1029 15.844 21.8765ZM15.844 27.3973C15.9348 27.1709 16.1119 26.9898 16.3362 26.8938C16.5605 26.7979 16.8137 26.795 17.0402 26.8857L20.2736 28.1794C20.9316 28.4426 21.6656 28.4426 22.3236 28.1794L24.1897 27.4323C25.2865 26.9935 26.5102 26.9935 27.6071 27.4323L29.4749 28.1794C30.133 28.4426 30.867 28.4426 31.525 28.1794L33.3911 27.4323C34.4879 26.9935 35.7116 26.9935 36.8085 27.4323L38.6763 28.1794C39.3344 28.4426 40.0684 28.4426 40.7264 28.1794L43.9598 26.8857C44.0725 26.8378 44.1936 26.8128 44.316 26.8123C44.4384 26.8118 44.5598 26.8358 44.6728 26.8827C44.7859 26.9297 44.8885 26.9988 44.9745 27.0859C45.0605 27.173 45.1283 27.2765 45.1739 27.3901C45.2194 27.5038 45.2419 27.6254 45.2398 27.7478C45.2378 27.8702 45.2113 27.991 45.162 28.1031C45.1127 28.2151 45.0415 28.3162 44.9526 28.4005C44.8637 28.4847 44.7589 28.5503 44.6444 28.5935L41.4091 29.8872C40.3123 30.326 39.0886 30.326 37.9917 29.8872L36.1257 29.14C35.4677 28.8769 34.7337 28.8769 34.0756 29.14L32.2078 29.8872C31.1109 30.326 29.8872 30.326 28.7904 29.8872L26.9243 29.14C26.2663 28.8769 25.5323 28.8769 24.8742 29.14L23.0064 29.8872C21.9095 30.326 20.6859 30.326 19.589 29.8872L16.3556 28.5935C16.1292 28.5026 15.9481 28.3256 15.8521 28.1013C15.7562 27.877 15.7533 27.6238 15.844 27.3973ZM15.844 32.9181C15.9348 32.6917 16.1119 32.5106 16.3362 32.4147C16.5605 32.3187 16.8137 32.3158 17.0402 32.4065L20.2736 33.7002C20.9316 33.9634 21.6656 33.9634 22.3236 33.7002L24.1897 32.9531C25.2865 32.5143 26.5102 32.5143 27.6071 32.9531L29.4749 33.7002C30.133 33.9634 30.867 33.9634 31.525 33.7002L33.3911 32.9531C34.4879 32.5143 35.7116 32.5143 36.8085 32.9531L38.6763 33.7002C39.3344 33.9634 40.0684 33.9634 40.7264 33.7002L43.9598 32.4065C44.0725 32.3586 44.1936 32.3337 44.316 32.3332C44.4384 32.3327 44.5598 32.3566 44.6728 32.4036C44.7859 32.4506 44.8885 32.5196 44.9745 32.6067C45.0605 32.6939 45.1283 32.7973 45.1739 32.9109C45.2194 33.0246 45.2419 33.1462 45.2398 33.2686C45.2378 33.391 45.2113 33.5118 45.162 33.6239C45.1127 33.736 45.0415 33.8371 44.9526 33.9213C44.8637 34.0055 44.7589 34.0711 44.6444 34.1143L41.4091 35.408C40.3123 35.8468 39.0886 35.8468 37.9917 35.408L36.1257 34.6609C35.4677 34.3977 34.7337 34.3977 34.0756 34.6609L32.2078 35.408C31.1109 35.8468 29.8872 35.8468 28.7904 35.408L26.9243 34.6609C26.2663 34.3977 25.5323 34.3977 24.8742 34.6609L23.0064 35.408C21.9095 35.8468 20.6859 35.8468 19.589 35.408L16.3556 34.1143C16.1292 34.0235 15.9481 33.8465 15.8521 33.6221C15.7562 33.3978 15.7533 33.1446 15.844 32.9181ZM15.844 38.439C15.9348 38.2125 16.1119 38.0314 16.3362 37.9355C16.5605 37.8396 16.8137 37.8366 17.0402 37.9274L20.2736 39.2211C20.9316 39.4842 21.6656 39.4842 22.3236 39.2211L24.1897 38.4739C25.2865 38.0352 26.5102 38.0352 27.6071 38.4739L29.4749 39.2211C30.133 39.4842 30.867 39.4842 31.525 39.2211L33.3911 38.4739C34.4879 38.0352 35.7116 38.0352 36.8085 38.4739L38.6763 39.2211C39.3344 39.4842 40.0684 39.4842 40.7264 39.2211L43.9598 37.9274C44.0725 37.8794 44.1936 37.8545 44.316 37.854C44.4384 37.8535 44.5598 37.8774 44.6728 37.9244C44.7859 37.9714 44.8885 38.0405 44.9745 38.1276C45.0605 38.2147 45.1283 38.3181 45.1739 38.4318C45.2194 38.5454 45.2419 38.667 45.2398 38.7894C45.2378 38.9119 45.2113 39.0327 45.162 39.1447C45.1127 39.2568 45.0415 39.3579 44.9526 39.4421C44.8637 39.5263 44.7589 39.592 44.6444 39.6351L41.4091 40.9289C40.3123 41.3676 39.0886 41.3676 37.9917 40.9289L36.1257 40.1817C35.4677 39.9185 34.7337 39.9185 34.0756 40.1817L32.2078 40.9289C31.1109 41.3676 29.8872 41.3676 28.7904 40.9289L26.9243 40.1817C26.2663 39.9185 25.5323 39.9185 24.8742 40.1817L23.0064 40.9289C21.9095 41.3676 20.6859 41.3676 19.589 40.9289L16.3556 39.6351C16.1292 39.5443 15.9481 39.3673 15.8521 39.143C15.7562 38.9187 15.7533 38.6654 15.844 38.439Z" fill="#149469"/>
</g>
<defs>
<clipPath id="clip0_20_614">
<rect width="29.4444" height="29.4444" fill="white" transform="translate(15.7778 15.7778)"/>
</clipPath>
</defs>
</svg>
