<svg width="22" height="22" viewBox="0 0 22 22" fill="none" xmlns="http://www.w3.org/2000/svg">
<g clip-path="url(#clip0_56_294)">
<path d="M11 1.375C9.17664 1.375 7.42795 2.09933 6.13864 3.38864C4.84933 4.67795 4.125 6.42664 4.125 8.25V9.625H5.5C5.86467 9.625 6.21441 9.76987 6.47227 10.0277C6.73013 10.2856 6.875 10.6353 6.875 11V15.125C6.875 15.4897 6.73013 15.8394 6.47227 16.0973C6.21441 16.3551 5.86467 16.5 5.5 16.5H4.125C3.76033 16.5 3.41059 16.3551 3.15273 16.0973C2.89487 15.8394 2.75 15.4897 2.75 15.125V8.25C2.75 7.16659 2.96339 6.0938 3.37799 5.09286C3.7926 4.09193 4.40029 3.18245 5.16637 2.41637C5.93245 1.65029 6.84193 1.0426 7.84286 0.627994C8.8438 0.213393 9.91659 0 11 0C12.0834 0 13.1562 0.213393 14.1571 0.627994C15.1581 1.0426 16.0675 1.65029 16.8336 2.41637C17.5997 3.18245 18.2074 4.09193 18.622 5.09286C19.0366 6.0938 19.25 7.16659 19.25 8.25V16.5C19.25 17.4117 18.8878 18.286 18.2432 18.9307C17.5985 19.5753 16.7242 19.9375 15.8125 19.9375H12.8783C12.7576 20.1465 12.584 20.3201 12.375 20.4408C12.166 20.5615 11.9289 20.625 11.6875 20.625H10.3125C9.94783 20.625 9.59809 20.4801 9.34023 20.2223C9.08237 19.9644 8.9375 19.6147 8.9375 19.25C8.9375 18.8853 9.08237 18.5356 9.34023 18.2777C9.59809 18.0199 9.94783 17.875 10.3125 17.875H11.6875C11.9289 17.875 12.166 17.9385 12.375 18.0592C12.584 18.1799 12.7576 18.3535 12.8783 18.5625H15.8125C16.3595 18.5625 16.8841 18.3452 17.2709 17.9584C17.6577 17.5716 17.875 17.047 17.875 16.5H16.5C16.1353 16.5 15.7856 16.3551 15.5277 16.0973C15.2699 15.8394 15.125 15.4897 15.125 15.125V11C15.125 10.6353 15.2699 10.2856 15.5277 10.0277C15.7856 9.76987 16.1353 9.625 16.5 9.625H17.875V8.25C17.875 7.34716 17.6972 6.45316 17.3517 5.61905C17.0062 4.78494 16.4998 4.02704 15.8614 3.38864C15.223 2.75024 14.4651 2.24383 13.6309 1.89833C12.7968 1.55283 11.9028 1.375 11 1.375Z" fill="#85909A"/>
</g>
<defs>
<clipPath id="clip0_56_294">
<rect width="22" height="22" fill="white"/>
</clipPath>
</defs>
</svg>
