<svg width="31" height="31" viewBox="0 0 31 31" fill="none" xmlns="http://www.w3.org/2000/svg">
<g clip-path="url(#clip0_20_607)">
<path d="M0.844007 6.87646C0.934831 6.65003 1.11186 6.46894 1.33617 6.373C1.56049 6.27706 1.81372 6.27414 2.04019 6.36486L5.27356 7.65858C5.93158 7.92174 6.6656 7.92174 7.32362 7.65858L9.18967 6.91142C10.2865 6.47266 11.5102 6.47266 12.6071 6.91142L14.4749 7.65858C15.133 7.92174 15.867 7.92174 16.525 7.65858L18.3911 6.91142C19.4879 6.47266 20.7116 6.47266 21.8085 6.91142L23.6763 7.65858C24.3344 7.92174 25.0684 7.92174 25.7264 7.65858L28.9598 6.36486C29.0725 6.31695 29.1936 6.29201 29.316 6.2915C29.4384 6.291 29.5598 6.31493 29.6728 6.36191C29.7859 6.40889 29.8885 6.47796 29.9745 6.56508C30.0605 6.6522 30.1283 6.75562 30.1739 6.86927C30.2194 6.98292 30.2419 7.10452 30.2398 7.22695C30.2378 7.34938 30.2113 7.47017 30.162 7.58224C30.1127 7.69431 30.0415 7.79542 29.9526 7.87962C29.8637 7.96383 29.7589 8.02945 29.6444 8.07264L26.4091 9.36635C25.3123 9.80512 24.0886 9.80512 22.9917 9.36635L21.1257 8.6192C20.4677 8.35604 19.7337 8.35604 19.0756 8.6192L17.2078 9.36635C16.1109 9.80512 14.8872 9.80512 13.7904 9.36635L11.9243 8.6192C11.2663 8.35604 10.5323 8.35604 9.87425 8.6192L8.00637 9.36635C6.90949 9.80512 5.68585 9.80512 4.58897 9.36635L1.3556 8.07264C1.12917 7.98182 0.948081 7.80478 0.852144 7.58047C0.756207 7.35616 0.75328 7.10293 0.844007 6.87646ZM0.844007 12.3973C0.934831 12.1709 1.11186 11.9898 1.33617 11.8938C1.56049 11.7979 1.81372 11.795 2.04019 11.8857L5.27356 13.1794C5.93158 13.4426 6.6656 13.4426 7.32362 13.1794L9.18967 12.4323C10.2865 11.9935 11.5102 11.9935 12.6071 12.4323L14.4749 13.1794C15.133 13.4426 15.867 13.4426 16.525 13.1794L18.3911 12.4323C19.4879 11.9935 20.7116 11.9935 21.8085 12.4323L23.6763 13.1794C24.3344 13.4426 25.0684 13.4426 25.7264 13.1794L28.9598 11.8857C29.0725 11.8378 29.1936 11.8128 29.316 11.8123C29.4384 11.8118 29.5598 11.8358 29.6728 11.8827C29.7859 11.9297 29.8885 11.9988 29.9745 12.0859C30.0605 12.173 30.1283 12.2765 30.1739 12.3901C30.2194 12.5038 30.2419 12.6254 30.2398 12.7478C30.2378 12.8702 30.2113 12.991 30.162 13.1031C30.1127 13.2151 30.0415 13.3162 29.9526 13.4005C29.8637 13.4847 29.7589 13.5503 29.6444 13.5935L26.4091 14.8872C25.3123 15.326 24.0886 15.326 22.9917 14.8872L21.1257 14.14C20.4677 13.8769 19.7337 13.8769 19.0756 14.14L17.2078 14.8872C16.1109 15.326 14.8872 15.326 13.7904 14.8872L11.9243 14.14C11.2663 13.8769 10.5323 13.8769 9.87425 14.14L8.00637 14.8872C6.90949 15.326 5.68585 15.326 4.58897 14.8872L1.3556 13.5935C1.12917 13.5026 0.948081 13.3256 0.852144 13.1013C0.756207 12.877 0.75328 12.6238 0.844007 12.3973ZM0.844007 17.9181C0.934831 17.6917 1.11186 17.5106 1.33617 17.4147C1.56049 17.3187 1.81372 17.3158 2.04019 17.4065L5.27356 18.7002C5.93158 18.9634 6.6656 18.9634 7.32362 18.7002L9.18967 17.9531C10.2865 17.5143 11.5102 17.5143 12.6071 17.9531L14.4749 18.7002C15.133 18.9634 15.867 18.9634 16.525 18.7002L18.3911 17.9531C19.4879 17.5143 20.7116 17.5143 21.8085 17.9531L23.6763 18.7002C24.3344 18.9634 25.0684 18.9634 25.7264 18.7002L28.9598 17.4065C29.0725 17.3586 29.1936 17.3337 29.316 17.3332C29.4384 17.3327 29.5598 17.3566 29.6728 17.4036C29.7859 17.4506 29.8885 17.5196 29.9745 17.6067C30.0605 17.6939 30.1283 17.7973 30.1739 17.9109C30.2194 18.0246 30.2419 18.1462 30.2398 18.2686C30.2378 18.391 30.2113 18.5118 30.162 18.6239C30.1127 18.736 30.0415 18.8371 29.9526 18.9213C29.8637 19.0055 29.7589 19.0711 29.6444 19.1143L26.4091 20.408C25.3123 20.8468 24.0886 20.8468 22.9917 20.408L21.1257 19.6609C20.4677 19.3977 19.7337 19.3977 19.0756 19.6609L17.2078 20.408C16.1109 20.8468 14.8872 20.8468 13.7904 20.408L11.9243 19.6609C11.2663 19.3977 10.5323 19.3977 9.87425 19.6609L8.00637 20.408C6.90949 20.8468 5.68585 20.8468 4.58897 20.408L1.3556 19.1143C1.12917 19.0235 0.948081 18.8465 0.852144 18.6221C0.756207 18.3978 0.75328 18.1446 0.844007 17.9181ZM0.844007 23.439C0.934831 23.2125 1.11186 23.0314 1.33617 22.9355C1.56049 22.8396 1.81372 22.8366 2.04019 22.9274L5.27356 24.2211C5.93158 24.4842 6.6656 24.4842 7.32362 24.2211L9.18967 23.4739C10.2865 23.0352 11.5102 23.0352 12.6071 23.4739L14.4749 24.2211C15.133 24.4842 15.867 24.4842 16.525 24.2211L18.3911 23.4739C19.4879 23.0352 20.7116 23.0352 21.8085 23.4739L23.6763 24.2211C24.3344 24.4842 25.0684 24.4842 25.7264 24.2211L28.9598 22.9274C29.0725 22.8794 29.1936 22.8545 29.316 22.854C29.4384 22.8535 29.5598 22.8774 29.6728 22.9244C29.7859 22.9714 29.8885 23.0405 29.9745 23.1276C30.0605 23.2147 30.1283 23.3181 30.1739 23.4318C30.2194 23.5454 30.2419 23.667 30.2398 23.7894C30.2378 23.9119 30.2113 24.0327 30.162 24.1447C30.1127 24.2568 30.0415 24.3579 29.9526 24.4421C29.8637 24.5263 29.7589 24.592 29.6444 24.6351L26.4091 25.9289C25.3123 26.3676 24.0886 26.3676 22.9917 25.9289L21.1257 25.1817C20.4677 24.9185 19.7337 24.9185 19.0756 25.1817L17.2078 25.9289C16.1109 26.3676 14.8872 26.3676 13.7904 25.9289L11.9243 25.1817C11.2663 24.9185 10.5323 24.9185 9.87425 25.1817L8.00637 25.9289C6.90949 26.3676 5.68585 26.3676 4.58897 25.9289L1.3556 24.6351C1.12917 24.5443 0.948081 24.3673 0.852144 24.143C0.756207 23.9187 0.75328 23.6654 0.844007 23.439Z" fill="#149469"/>
</g>
<defs>
<clipPath id="clip0_20_607">
<rect width="29.4444" height="29.4444" fill="white" transform="translate(0.777771 0.777779)"/>
</clipPath>
</defs>
</svg>
