<svg width="18" height="18" viewBox="0 0 18 18" fill="none" xmlns="http://www.w3.org/2000/svg">
<path d="M10.6875 14.0625C10.6873 14.3718 10.6022 14.6752 10.4413 14.9394C10.2804 15.2036 10.0499 15.4185 9.77516 15.5605C9.50039 15.7026 9.19185 15.7665 8.88325 15.7451C8.57466 15.7237 8.27789 15.6179 8.02536 15.4392C7.77284 15.2605 7.57428 15.0159 7.45139 14.732C7.32849 14.4481 7.28599 14.136 7.32853 13.8296C7.37107 13.5232 7.49701 13.2344 7.69259 12.9947C7.88817 12.755 8.14586 12.5737 8.4375 12.4706V7.3125C8.4375 7.16332 8.49676 7.02024 8.60225 6.91475C8.70774 6.80926 8.85082 6.75 9 6.75C9.14918 6.75 9.29226 6.80926 9.39775 6.91475C9.50324 7.02024 9.5625 7.16332 9.5625 7.3125V12.4706C9.89165 12.587 10.1766 12.8026 10.3781 13.0877C10.5796 13.3728 10.6877 13.7134 10.6875 14.0625Z" fill="#85909A"/>
<path d="M6.1875 2.8125C6.1875 2.06658 6.48382 1.35121 7.01126 0.823762C7.53871 0.296316 8.25408 0 9 0C9.74592 0 10.4613 0.296316 10.9887 0.823762C11.5162 1.35121 11.8125 2.06658 11.8125 2.8125V11.3063C12.3551 11.8601 12.7222 12.5618 12.8676 13.3233C13.013 14.0849 12.9304 14.8725 12.63 15.5873C12.3297 16.3021 11.825 16.9123 11.1792 17.3414C10.5334 17.7705 9.77534 17.9994 9 17.9994C8.22466 17.9994 7.46657 17.7705 6.8208 17.3414C6.17503 16.9123 5.67032 16.3021 5.36996 15.5873C5.0696 14.8725 4.98696 14.0849 5.13239 13.3233C5.27783 12.5618 5.64488 11.8601 6.1875 11.3063V2.8125ZM9 1.125C8.55245 1.125 8.12323 1.30279 7.80676 1.61926C7.49029 1.93572 7.3125 2.36495 7.3125 2.8125V11.7979L7.12463 11.9666C6.70002 12.3463 6.40072 12.846 6.26633 13.3996C6.13194 13.9531 6.1688 14.5344 6.37203 15.0666C6.57526 15.5987 6.93529 16.0566 7.40445 16.3796C7.87362 16.7026 8.42982 16.8756 8.99944 16.8756C9.56906 16.8756 10.1253 16.7026 10.5944 16.3796C11.0636 16.0566 11.4236 15.5987 11.6268 15.0666C11.8301 14.5344 11.8669 13.9531 11.7325 13.3996C11.5982 12.846 11.2989 12.3463 10.8743 11.9666L10.6875 11.7979V2.8125C10.6875 2.36495 10.5097 1.93572 10.1932 1.61926C9.87678 1.30279 9.44755 1.125 9 1.125Z" fill="#85909A"/>
</svg>
