<svg width="18" height="18" viewBox="0 0 18 18" fill="none" xmlns="http://www.w3.org/2000/svg">
<path d="M7.3125 1.125H10.6875C10.9982 1.125 11.25 1.37684 11.25 1.6875V2.8125H6.75V1.6875C6.75 1.37684 7.00184 1.125 7.3125 1.125ZM12.375 2.8125V1.6875C12.375 0.75552 11.6195 0 10.6875 0H7.3125C6.38052 0 5.625 0.755519 5.625 1.6875V2.8125H2.81886C2.81504 2.81246 2.81121 2.81246 2.80737 2.8125H1.6875C1.37684 2.8125 1.125 3.06434 1.125 3.375C1.125 3.68566 1.37684 3.9375 1.6875 3.9375H2.2932L3.25256 15.9294C3.3461 17.0988 4.32233 18 5.49539 18H12.5046C13.6777 18 14.6539 17.0988 14.7474 15.9294L15.7068 3.9375H16.3125C16.6232 3.9375 16.875 3.68566 16.875 3.375C16.875 3.06434 16.6232 2.8125 16.3125 2.8125H15.1926C15.1888 2.81246 15.185 2.81246 15.1811 2.8125H12.375ZM14.5782 3.9375L13.626 15.8397C13.5793 16.4244 13.0911 16.875 12.5046 16.875H5.49539C4.90886 16.875 4.42075 16.4244 4.37397 15.8397L3.4218 3.9375H14.5782ZM6.15447 5.06347C6.46459 5.04523 6.73079 5.28184 6.74903 5.59197L7.31153 15.1545C7.32977 15.4646 7.09316 15.7308 6.78303 15.749C6.47291 15.7673 6.20671 15.5307 6.18847 15.2205L5.62597 5.65803C5.60773 5.34791 5.84435 5.08171 6.15447 5.06347ZM11.8455 5.06347C12.1557 5.08171 12.3923 5.34791 12.374 5.65803L11.8115 15.2205C11.7933 15.5307 11.5271 15.7673 11.217 15.749C10.9068 15.7308 10.6702 15.4646 10.6885 15.1545L11.251 5.59197C11.2692 5.28184 11.5354 5.04523 11.8455 5.06347ZM9 5.0625C9.31066 5.0625 9.5625 5.31434 9.5625 5.625V15.1875C9.5625 15.4982 9.31066 15.75 9 15.75C8.68934 15.75 8.4375 15.4982 8.4375 15.1875V5.625C8.4375 5.31434 8.68934 5.0625 9 5.0625Z" fill="#B0BBC5"/>
</svg>
